<?xml version="1.0" encoding="UTF-8"?>
<svg xmlns="http://www.w3.org/2000/svg" 
     xmlns:xlink="http://www.w3.org/1999/xlink"
     viewBox="0 0 398 224"
     width="100%"
     height="auto"
     preserveAspectRatio="xMidYMid slice"
     version="1.1"
     xml:space="preserve"
     role="img"
     aria-label="Decorative animated hero wave background with DULAS text">

<g fill="#1a2e43" fill-opacity="1.00" stroke="None">
<path d="
M 0.00 146.00 
C 11.54 140.79 22.89 133.30 35.00 129.00
C 74.75 114.87 118.50 103.89 161.00 119.00
C 173.45 120.13 185.21 128.25 198.00 132.00
C 198.55 133.82 196.25 134.47 196.00 136.00
C 198.13 136.37 199.87 137.50 202.00 138.00
C 202.47 138.11 203.00 138.00 203.00 138.00
C 213.06 135.31 227.31 141.05 239.00 141.00 C 250.69 140.95 266.50 143.92 279.00 143.00 C 291.50 142.08 304.31 139.60 316.07 138.07 C 327.84 136.55 339.07 133.88 349.08 129.08 C 359.08 124.27 368.63 122.04 376.75 114.75 C 384.87 107.45 391.86 102.88 393.00 91.00
C 394.54 91.37 395.40 89.57 397.00 90.00
C 397.50 90.02 398.00 90.00 398.00 90.00
L 398.00 0.00
L 0.00 0.00
L 0.00 146.00 Z"/>
</g>
<g fill="#1a2e43" fill-opacity="1.00" stroke="None">
<path d="
M 203.00 138.00 
C 205.01 139.72 207.35 140.33 210.00 141.00
C 218.93 143.25 227.74 146.71 237.00 148.00
C 252.10 150.11 267.66 151.28 284.00 152.00 C 300.34 152.72 315.70 148.51 330.00 147.00
C 357.63 137.55 386.09 119.05 397.00 90.00
C 395.40 89.57 394.54 91.37 393.00 91.00
C 391.86 102.88 384.87 107.45 376.75 114.75 C 368.63 122.04 359.08 124.27 349.08 129.08 C 339.07 133.88 327.84 136.55 316.07 138.07 C 304.31 139.60 291.50 142.08 279.00 143.00 C 266.50 143.92 250.69 140.95 239.00 141.00 C 227.31 141.05 213.06 135.31 203.00 138.00 Z"/>
</g>
<g fill="#2281D7" fill-opacity="1.00" stroke="None">
<path d="
M 330.00 147.00 
C 301.66 156.70 265.72 156.36 237.00 148.00
C 227.74 146.71 218.93 143.25 210.00 141.00
C 265.30 168.34 339.18 189.49 398.00 157.00
L 398.00 90.00
C 398.00 90.00 397.50 90.02 397.00 90.00
C 386.09 119.05 357.63 137.55 330.00 147.00 Z"/>
</g>
<g fill="#FACC18" fill-opacity="1.00" stroke="None">
<path d="
M 35.00 129.00 
C 23.17 134.85 11.72 142.58 0.00 149.00
L 0.00 222.00
C 0.34 221.84 0.83 221.33 1.00 221.00
C 2.90 217.33 5.30 213.46 7.00 210.00
C 7.08 209.51 7.02 208.50 7.00 208.00
C 6.82 203.36 10.93 200.37 9.00 196.00
C 16.29 196.51 16.25 184.46 22.25 180.25 C 28.25 176.05 32.18 169.14 37.08 164.08 C 41.99 159.02 48.87 154.98 54.70 150.70 C 60.53 146.41 67.59 143.23 72.00 137.00
C 74.34 138.97 76.52 136.64 79.00 138.00
C 93.46 131.31 111.71 127.00 128.00 127.00
C 133.04 126.51 139.03 126.52 144.00 127.00
C 149.58 127.00 154.40 128.00 160.00 128.00
C 161.33 128.00 162.67 128.00 164.00 128.00
C 172.21 128.00 177.71 130.87 185.00 129.00
C 179.29 126.55 172.61 125.13 168.00 121.00
C 165.67 120.37 162.97 119.70 161.00 119.00
C 118.50 103.89 74.75 114.87 35.00 129.00 Z"/>
</g>
<g fill="#F8F6C3" fill-opacity="1.00" stroke="None">
<path d="
M 161.00 119.00 
C 162.97 119.70 165.67 120.37 168.00 121.00
C 177.23 123.50 186.71 128.14 192.00 135.00
C 192.47 135.15 193.80 135.95 194.00 136.00
C 194.50 136.00 195.51 135.92 196.00 136.00
C 196.25 134.47 198.55 133.82 198.00 132.00
C 185.21 128.25 173.45 120.13 161.00 119.00 Z"/>
</g>
<g fill="#E4D761" fill-opacity="1.00" stroke="None">
<path d="
M 164.00 128.00 
C 166.33 128.30 170.31 129.30 173.00 130.00
C 174.36 130.35 175.55 130.69 177.00 131.00
C 182.10 132.08 187.03 133.42 192.00 135.00
C 186.71 128.14 177.23 123.50 168.00 121.00
C 172.61 125.13 179.29 126.55 185.00 129.00
C 177.71 130.87 172.21 128.00 164.00 128.00 Z"/>
</g>
<g fill="#9B9547" fill-opacity="1.00" stroke="None">
<path d="
M 128.00 127.00 
C 133.33 127.00 138.67 127.00 144.00 127.00
C 139.03 126.52 133.04 126.51 128.00 127.00 Z"/>
</g>
<g fill="#1D2816" fill-opacity="1.00" stroke="None">
<path d="
M 79.00 138.00 
C 77.12 138.87 74.83 141.13 73.00 142.00
C 75.70 141.14 78.27 139.89 81.00 139.00
C 107.88 130.27 134.28 125.66 164.00 130.00
C 163.14 129.76 160.81 128.16 160.00 128.00
C 154.40 128.00 149.58 127.00 144.00 127.00
C 138.67 127.00 133.33 127.00 128.00 127.00
C 111.71 127.00 93.46 131.31 79.00 138.00 Z"/>
</g>
<g fill="#033F81" fill-opacity="1.00" stroke="None">
<path d="
M 81.00 139.00 
C 95.62 137.65 112.56 137.62 128.00 139.00
C 123.32 140.56 117.43 141.00 112.00 141.00
C 108.87 145.86 97.70 143.33 92.26 147.26 C 86.81 151.18 80.55 151.80 75.30 156.30 C 70.05 160.80 66.07 164.69 61.70 169.70 C 57.34 174.72 54.18 178.90 50.75 184.75 C 47.31 190.59 45.48 196.23 42.68 202.68 C 39.88 209.13 35.73 216.19 37.00 224.00
L 398.00 224.00
L 398.00 157.00
C 339.18 189.49 265.30 168.34 210.00 141.00
C 207.35 140.33 205.01 139.72 203.00 138.00
C 203.00 138.00 202.47 138.11 202.00 138.00
C 203.88 142.16 193.49 136.53 192.00 136.00
C 187.61 135.82 180.96 133.91 177.00 132.00
C 174.64 132.56 172.62 131.34 171.00 131.00
C 168.63 130.51 166.46 130.36 164.00 130.00
C 134.28 125.66 107.88 130.27 81.00 139.00
M 170.00 135.00 
C 167.72 136.54 162.21 136.72 160.00 135.00
C 162.57 132.81 166.99 134.29 170.00 135.00
M 188.00 141.00 
C 191.39 136.62 193.46 144.03 188.00 141.00 Z"/>
</g>
<g fill="#3C4119" fill-opacity="1.00" stroke="None">
<path d="
M 164.00 130.00 
C 166.46 130.36 168.63 130.51 171.00 131.00
C 172.15 130.95 172.43 130.10 173.00 130.00
C 170.31 129.30 166.33 128.30 164.00 128.00
C 162.67 128.00 161.33 128.00 160.00 128.00
C 160.81 128.16 163.14 129.76 164.00 130.00 Z"/>
</g>
<g fill="#F8E897" fill-opacity="1.00" stroke="None">
<path d="
M 0.00 146.00 
L 0.00 149.00
C 11.72 142.58 23.17 134.85 35.00 129.00
C 22.89 133.30 11.54 140.79 0.00 146.00 Z"/>
</g>
<g fill="#131420" fill-opacity="1.00" stroke="None">
<path d="
M 171.00 131.00 
C 172.62 131.34 174.64 132.56 177.00 132.00
C 176.80 131.91 177.00 131.00 177.00 131.00
C 175.55 130.69 174.36 130.35 173.00 130.00
C 172.43 130.10 172.15 130.95 171.00 131.00 Z"/>
</g>
<g fill="#2A3217" fill-opacity="1.00" stroke="None">
<path d="
M 177.00 132.00 
C 180.96 133.91 187.61 135.82 192.00 136.00
C 192.50 136.02 193.50 136.00 194.00 136.00
C 193.80 135.95 192.47 135.15 192.00 135.00
C 187.03 133.42 182.10 132.08 177.00 131.00
C 177.00 131.00 176.80 131.91 177.00 132.00 Z"/>
</g>
<g fill="#004255" fill-opacity="1.00" stroke="None">
<path d="
M 170.00 135.00 
C 166.99 134.29 162.57 132.81 160.00 135.00
C 162.21 136.72 167.72 136.54 170.00 135.00 Z"/>
</g>
<g fill="#182749" fill-opacity="1.00" stroke="None">
<path d="
M 202.00 138.00 
C 199.87 137.50 198.13 136.37 196.00 136.00
C 195.51 135.92 194.50 136.00 194.00 136.00
C 193.50 136.00 192.50 136.02 192.00 136.00
C 193.49 136.53 203.88 142.16 202.00 138.00 Z"/>
</g>
<g fill="#DCD150" fill-opacity="1.00" stroke="None">
<path d="
M 7.00 208.00 
C 7.11 207.74 7.83 207.33 8.00 207.00
C 12.20 198.89 17.28 187.40 25.00 182.00
C 25.05 181.50 25.00 181.00 25.00 181.00
C 25.18 179.85 26.28 179.54 27.00 179.00
C 27.79 178.19 28.34 176.87 29.00 176.00
C 32.78 171.01 38.67 164.24 44.00 161.00
C 44.48 160.71 45.65 160.33 46.00 160.00
C 47.72 158.40 49.14 156.47 51.00 155.00
C 56.84 150.39 63.27 146.04 70.00 143.00
C 71.10 142.50 71.86 142.36 73.00 142.00
C 74.83 141.13 77.12 138.87 79.00 138.00
C 76.52 136.64 74.34 138.97 72.00 137.00
C 67.59 143.23 60.53 146.41 54.70 150.70 C 48.87 154.98 41.99 159.02 37.08 164.08 C 32.18 169.14 28.25 176.05 22.25 180.25 C 16.25 184.46 16.29 196.51 9.00 196.00
C 10.93 200.37 6.82 203.36 7.00 208.00 Z"/>
</g>
<g fill="#074D91" fill-opacity="1.00" stroke="None">
<path d="
M 81.00 139.00 
C 78.27 139.89 75.70 141.14 73.00 142.00
C 71.86 142.36 71.10 142.50 70.00 143.00
C 64.34 148.21 55.75 152.43 49.00 158.00
C 48.01 159.10 46.96 159.17 46.00 160.00
C 41.49 163.86 35.82 169.54 32.00 174.00
C 31.34 174.77 30.86 176.03 30.00 177.00
C 28.29 178.92 27.27 179.79 25.00 181.00
C 25.00 181.00 25.05 181.50 25.00 182.00
C 24.57 186.61 18.77 190.84 16.68 194.68 C 14.59 198.52 11.48 204.39 8.00 207.00
C 7.83 207.33 7.11 207.74 7.00 208.00
C 7.02 208.50 7.08 209.51 7.00 210.00
C 6.40 213.43 4.18 216.69 3.00 220.00
C 2.53 221.31 1.55 222.41 2.00 224.00
L 14.00 224.00
C 13.73 222.72 14.77 221.28 16.00 221.00
C 16.00 222.00 16.00 223.00 16.00 224.00
L 37.00 224.00
C 35.73 216.19 39.88 209.13 42.68 202.68 C 45.48 196.23 47.31 190.59 50.75 184.75 C 54.18 178.90 57.34 174.72 61.70 169.70 C 66.07 164.69 70.05 160.80 75.30 156.30 C 80.55 151.80 86.81 151.18 92.26 147.26 C 97.70 143.33 108.87 145.86 112.00 141.00
C 117.43 141.00 123.32 140.56 128.00 139.00
C 112.56 137.62 95.62 137.65 81.00 139.00 Z"/>
</g>
<g fill="#024441" fill-opacity="1.00" stroke="None">
<path d="
M 188.00 141.00 
C 193.46 144.03 191.39 136.62 188.00 141.00 Z"/>
</g>
<g fill="#304A31" fill-opacity="1.00" stroke="None">
<path d="
M 51.00 155.00 
C 50.23 155.82 49.71 157.21 49.00 158.00
C 55.75 152.43 64.34 148.21 70.00 143.00
C 63.27 146.04 56.84 150.39 51.00 155.00 Z"/>
</g>
<g fill="#B0E1FC" fill-opacity="1.00" stroke="None">
<path d="
M 237.00 148.00 
C 265.72 156.36 301.66 156.70 330.00 147.00
C 315.70 148.51 300.34 152.72 284.00 152.00 C 267.66 151.28 252.10 150.11 237.00 148.00 Z"/>
</g>
<g fill="#51591B" fill-opacity="1.00" stroke="None">
<path d="
M 46.00 160.00 
C 46.96 159.17 48.01 159.10 49.00 158.00
C 49.71 157.21 50.23 155.82 51.00 155.00
C 49.14 156.47 47.72 158.40 46.00 160.00 Z"/>
</g>
<g fill="#172F32" fill-opacity="1.00" stroke="None">
<path d="
M 44.00 161.00 
C 39.81 164.91 36.17 170.17 32.00 174.00
C 35.82 169.54 41.49 163.86 46.00 160.00
C 45.65 160.33 44.48 160.71 44.00 161.00 Z"/>
</g>
<g fill="#57602B" fill-opacity="1.00" stroke="None">
<path d="
M 29.00 176.00 
C 29.79 175.21 31.22 174.71 32.00 174.00
C 36.17 170.17 39.81 164.91 44.00 161.00
C 38.67 164.24 32.78 171.01 29.00 176.00 Z"/>
</g>
<g fill="#193312" fill-opacity="1.00" stroke="None">
<path d="
M 29.00 176.00 
C 28.34 176.87 27.79 178.19 27.00 179.00
C 27.90 178.33 29.21 177.71 30.00 177.00
C 30.86 176.03 31.34 174.77 32.00 174.00
C 31.22 174.71 29.79 175.21 29.00 176.00 Z"/>
</g>
<g fill="#364F4B" fill-opacity="1.00" stroke="None">
<path d="
M 27.00 179.00 
C 26.28 179.54 25.18 179.85 25.00 181.00
C 27.27 179.79 28.29 178.92 30.00 177.00
C 29.21 177.71 27.90 178.33 27.00 179.00 Z"/>
</g>
<g fill="#2F4C2F" fill-opacity="1.00" stroke="None">
<path d="
M 8.00 207.00 
C 11.48 204.39 14.59 198.52 16.68 194.68 C 18.77 190.84 24.57 186.61 25.00 182.00
C 17.28 187.40 12.20 198.89 8.00 207.00 Z"/>
</g>
<g fill="#2E3D1F" fill-opacity="1.00" stroke="None">
<path d="
M 1.00 221.00 
C 1.43 220.60 2.68 220.37 3.00 220.00
C 4.18 216.69 6.40 213.43 7.00 210.00
C 5.30 213.46 2.90 217.33 1.00 221.00 Z"/>
</g>
<g fill="#404E4B" fill-opacity="1.00" stroke="None">
<path d="
M 1.00 221.00 
C 0.83 221.33 0.34 221.84 0.00 222.00
L 0.00 224.00
L 2.00 224.00
C 1.55 222.41 2.53 221.31 3.00 220.00
C 2.68 220.37 1.43 220.60 1.00 221.00 Z"/>
</g>
<g fill="#005F75" fill-opacity="1.00" stroke="None">
<path d="
M 14.00 224.00 
L 16.00 224.00
C 16.00 223.00 16.00 222.00 16.00 221.00
C 14.77 221.28 13.73 222.72 14.00 224.00 Z"/>
</g>
<g fill="#2281D7" fill-opacity="0.3" stroke="None">
<path d="M 0.00 180.00 
C 20.00 170.00 40.00 190.00 60.00 180.00
C 80.00 170.00 100.00 190.00 120.00 180.00
C 140.00 170.00 160.00 190.00 180.00 180.00
C 200.00 170.00 220.00 190.00 240.00 180.00
C 260.00 170.00 280.00 190.00 300.00 180.00
C 320.00 170.00 340.00 190.00 360.00 180.00
C 380.00 170.00 398.00 190.00 398.00 180.00
L 398.00 224.00
L 0.00 224.00
Z"/>
</g>
<g fill="#FACC18" fill-opacity="0.2" stroke="None">
<path d="M 0.00 200.00 
C 15.00 195.00 30.00 205.00 45.00 200.00
C 60.00 195.00 75.00 205.00 90.00 200.00
C 105.00 195.00 120.00 205.00 135.00 200.00
C 150.00 195.00 165.00 205.00 180.00 200.00
C 195.00 195.00 210.00 205.00 225.00 200.00
C 240.00 195.00 255.00 205.00 270.00 200.00
C 285.00 195.00 300.00 205.00 315.00 200.00
C 330.00 195.00 345.00 205.00 360.00 200.00
C 375.00 195.00 390.00 205.00 398.00 200.00
L 398.00 224.00
L 0.00 224.00
Z"/>
</g>
<g fill="#CCDFEF" fill-opacity="0.15" stroke="None">
<path d="M 0.00 220.00 
C 10.00 218.00 20.00 222.00 30.00 220.00
C 40.00 218.00 50.00 222.00 60.00 220.00
C 70.00 218.00 80.00 222.00 90.00 220.00
C 100.00 218.00 110.00 222.00 120.00 220.00
C 130.00 218.00 140.00 222.00 150.00 220.00
C 160.00 218.00 170.00 222.00 180.00 220.00
C 190.00 218.00 200.00 222.00 210.00 220.00
C 220.00 218.00 230.00 222.00 240.00 220.00
C 250.00 218.00 260.00 222.00 270.00 220.00
C 280.00 218.00 290.00 222.00 300.00 220.00
C 310.00 218.00 320.00 222.00 330.00 220.00
C 340.00 218.00 350.00 222.00 360.00 220.00
C 370.00 218.00 380.00 222.00 398.00 220.00
L 398.00 224.00
L 0.00 224.00
Z"/>
</g>
<g fill="#FEFEFE" fill-opacity="0.1" stroke="None">
<path d="M 0.00 210.00 
C 25.00 205.00 50.00 215.00 75.00 210.00
C 100.00 205.00 125.00 215.00 150.00 210.00
C 175.00 205.00 200.00 215.00 225.00 210.00
C 250.00 205.00 275.00 215.00 300.00 210.00
C 325.00 205.00 350.00 215.00 375.00 210.00
C 398.00 205.00 398.00 215.00 398.00 210.00
L 398.00 224.00
L 0.00 224.00
Z"/>
</g>
<g class="float">
    <circle cx="50" cy="160" r="4" fill="#FFFFFF" fill-opacity="0.6" class="bubble"/>
    <circle cx="120" cy="150" r="3" fill="#FFFFFF" fill-opacity="0.5" class="bubble"/>
    <circle cx="180" cy="170" r="5" fill="#FFFFFF" fill-opacity="0.7" class="bubble"/>
    <circle cx="250" cy="155" r="4" fill="#FFFFFF" fill-opacity="0.6" class="bubble"/>
    <circle cx="320" cy="165" r="3" fill="#FFFFFF" fill-opacity="0.5" class="bubble"/>
    <circle cx="380" cy="160" r="4" fill="#FFFFFF" fill-opacity="0.6" class="bubble"/>
</g>
<g fill="#FFFFFF" fill-opacity="0.3" stroke="None">
    <path d="M 30 175 Q 35 170 40 175 Q 45 180 50 175 Q 55 170 60 175" class="float"/>
    <path d="M 150 165 Q 155 160 160 165 Q 165 170 170 165 Q 175 160 180 165" class="float"/>
    <path d="M 270 175 Q 275 170 280 175 Q 285 180 290 175 Q 295 170 300 175" class="float"/>
    <path d="M 350 165 Q 355 160 360 165 Q 365 170 370 165 Q 375 160 380 165" class="float"/>
</g>
<g fill="#FFFFFF" fill-opacity="0.2" stroke="None">
    <path d="M 80 185 Q 85 180 90 185 Q 95 190 100 185 Q 105 180 110 185" class="float"/>
    <path d="M 200 175 Q 205 170 210 175 Q 215 180 220 175 Q 225 170 230 175" class="float"/>
    <path d="M 320 185 Q 325 180 330 185 Q 335 190 340 185 Q 345 180 350 185" class="float"/>
</g>
<g transform="translate(99, 100)" class="float">
    <text class="dulas-text">D</text>
</g>
<g transform="translate(149, 100)" class="float">
    <text class="dulas-text">U</text>
</g>
<g transform="translate(199, 100)" class="float">
    <text class="dulas-text">L</text>
</g>
<g transform="translate(249, 100)" class="float">
    <text class="dulas-text">A</text>
</g>
<g transform="translate(299, 100)" class="float">
    <text class="dulas-text">S</text>
</g>
</svg>