<?xml version="1.0" encoding="UTF-8"?>
<svg width="100" height="60" viewBox="0 0 100 60" fill="none" xmlns="http://www.w3.org/2000/svg">
  <path d="M95.5 46.5C95.5 49.2656 93.2656 51.5 90.5 51.5H9.5C6.73438 51.5 4.5 49.2656 4.5 46.5V13.5C4.5 10.7344 6.73438 8.5 9.5 8.5H90.5C93.2656 8.5 95.5 10.7344 95.5 13.5V46.5Z" fill="#016FD0"/>
  <path d="M15.5 33.5L18.5 26.5H24.5L25.5 24.5L22.5 17.5H29.5L35.5 33.5H28.5L27.5 30.5H21.5L20.5 33.5H15.5Z" fill="white"/>
  <path d="M35.5 33.5L42.5 17.5H49.5L56.5 33.5H49.5L48.5 30.5H43.5L42.5 33.5H35.5Z" fill="white"/>
  <path d="M56.5 33.5V17.5H69.5L72.5 21.5L75.5 17.5H84.5V33.5H77.5V23.5L72.5 29.5L67.5 23.5V33.5H56.5Z" fill="white"/>
  <path d="M23.5 27.5H25.5L24.5 24.5L23.5 27.5Z" fill="#016FD0"/>
  <path d="M44.5 27.5H46.5L45.5 24.5L44.5 27.5Z" fill="#016FD0"/>
</svg>
