<?xml version="1.0" encoding="UTF-8"?>
<svg width="100" height="60" viewBox="0 0 100 60" fill="none" xmlns="http://www.w3.org/2000/svg">
  <path d="M63.1641 9.5H36.8359V50.5H63.1641V9.5Z" fill="#FF5F00"/>
  <path d="M38.6641 30C38.6641 21.7188 42.3906 14.3438 48.125 9.5C43.3594 5.6875 37.2578 3.5 30.5 3.5C13.9844 3.5 0.5 15.25 0.5 30C0.5 44.75 13.9844 56.5 30.5 56.5C37.2578 56.5 43.3594 54.3125 48.125 50.5C42.3906 45.7031 38.6641 38.2812 38.6641 30Z" fill="#EB001B"/>
  <path d="M99.5 30C99.5 44.75 86.0156 56.5 69.5 56.5C62.7422 56.5 56.6406 54.3125 51.875 50.5C57.6562 45.6562 61.3359 38.2812 61.3359 30C61.3359 21.7188 57.6094 14.3438 51.875 9.5C56.6406 5.6875 62.7422 3.5 69.5 3.5C86.0156 3.5 99.5 15.2969 99.5 30Z" fill="#F79E1B"/>
</svg>
