<?xml version="1.0" encoding="UTF-8"?>
<svg width="100" height="32" viewBox="0 0 100 32" fill="none" xmlns="http://www.w3.org/2000/svg">
  <path d="M41.2672 10.3469H34.1953L30.4688 25.8906H37.5406L41.2672 10.3469Z" fill="#00579F"/>
  <path d="M60.1484 10.7656C58.5859 10.1562 56.1719 9.5 53.1797 9.5C46.2578 9.5 41.4531 13.0781 41.4062 18.1875C41.3594 21.9609 44.8906 23.9375 47.5859 25.1094C50.3281 26.2812 51.2891 27.0312 51.2891 28.0391C51.2422 29.5547 49.4141 30.2578 47.6797 30.2578C45.1719 30.2578 43.8125 29.8828 41.6875 28.9219L40.7266 28.4531L39.7188 34.5781C41.5469 35.3281 44.9844 36 48.5469 36C55.8438 36 60.5703 32.4688 60.6172 27.0312C60.6641 23.9844 58.9297 21.5781 54.8203 19.7031C52.3125 18.4844 50.8438 17.7344 50.8438 16.5625C50.8906 15.4844 52.0625 14.3594 54.5234 14.3594C56.5938 14.3125 58.0625 14.7812 59.2344 15.25L59.9375 15.5781L60.9453 9.6875L60.1484 10.7656Z" fill="#00579F"/>
  <path d="M69.4766 10.3469C68.0078 10.3469 67.0469 10.3938 66.6719 11.4688L59.0391 25.8906H66.1109C66.1109 25.8906 67.0469 23.375 67.2812 22.7656C68.0078 22.7656 74.9766 22.7656 75.8906 22.7656C76.0781 23.5625 76.5938 25.8906 76.5938 25.8906H82.9531L77.3359 10.3469H69.4766ZM69.1016 17.9531C69.6641 16.5781 71.3047 12.5312 71.3047 12.5312C71.2578 12.5781 71.7266 11.4219 71.9609 10.7188L72.3359 12.3438C72.3359 12.3438 73.3906 16.7188 73.6719 17.9531H69.1016Z" fill="#00579F"/>
  <path d="M28.5 10.3469L21.9609 21.0938L21.2578 17.9062C20.1328 14.7344 17.0469 11.2969 13.6094 9.4688L19.6406 25.8438H26.7594L36.3672 10.3469H28.5Z" fill="#00579F"/>
  <path d="M13.1406 10.3469H2.625L2.4375 10.9531C10.2969 12.7812 15.5625 16.9375 17.7344 21.0938L15.2266 12.4844C14.8516 11.0625 14.1016 10.3938 13.1406 10.3469Z" fill="#FAA61A"/>
</svg>
